<?xml version="1.0" standalone="no"?>
<!DOCTYPE svg PUBLIC "-//W3C//DTD SVG 20010904//EN"
 "http://www.w3.org/TR/2001/REC-SVG-20010904/DTD/svg10.dtd">
<svg version="1.0" xmlns="http://www.w3.org/2000/svg"
 width="330.000000pt" height="330.000000pt" viewBox="0 0 330.000000 330.000000"
 preserveAspectRatio="xMidYMid meet">
<metadata>
Created by potrace 1.14, written by Peter Selinger 2001-2017
</metadata>
<g transform="translate(0.000000,330.000000) scale(0.100000,-0.100000)"
fill="#000000" stroke="none">
<path d="M2139 3013 c-116 -104 -157 -169 -166 -267 -10 -112 7 -150 99 -220
49 -36 251 -136 260 -128 20 21 78 143 84 177 27 158 -1 248 -115 374 -22 24
-50 58 -63 77 -13 19 -28 34 -34 34 -7 0 -36 -21 -65 -47z"/>
<path d="M2934 2674 c-164 -47 -433 -203 -683 -394 -64 -49 -129 -101 -146
-115 -197 -173 -191 -169 -276 -167 -108 3 -177 -21 -349 -124 -231 -136 -330
-230 -330 -312 0 -61 86 -154 185 -202 78 -37 101 -42 217 -46 140 -5 237 30
335 120 96 87 135 181 134 321 0 66 4 96 16 114 21 32 101 112 183 181 36 30
67 58 70 61 16 20 195 127 273 163 140 65 236 94 422 126 216 36 278 60 300
114 21 50 4 96 -50 133 -77 52 -182 62 -301 27z"/>
<path d="M1070 2354 c-512 -142 -840 -389 -1023 -772 l-42 -87 0 -215 0 -215
34 -79 c60 -138 167 -281 291 -387 68 -58 310 -202 335 -199 3 0 18 -6 33 -13
47 -24 210 -77 282 -91 199 -39 301 -50 485 -50 113 0 286 9 330 18 11 2 43 7
70 10 74 11 267 61 370 96 200 69 438 207 590 342 252 224 349 486 311 833
-13 117 -75 315 -98 315 -6 0 -7 -8 -3 -17 30 -77 37 -120 41 -263 4 -162 -8
-256 -41 -335 -47 -111 -169 -253 -295 -344 -30 -22 -60 -44 -65 -48 -50 -39
-286 -153 -385 -187 -133 -45 -225 -67 -340 -82 -66 -8 -506 -10 -605 -2 -124
10 -326 70 -475 141 -47 22 -88 41 -92 41 -26 4 -208 138 -267 198 -88 88
-122 136 -167 233 -133 288 -54 598 217 848 140 131 306 223 532 297 70 23
127 43 127 45 0 8 -40 -1 -150 -31z"/>
</g>
</svg>
