<svg viewBox="0 0 30 30" xmlns="http://www.w3.org/2000/svg">
<path d="M3.00029 4.79992C2.84128 4.79768 2.6834 4.82705 2.53584 4.88635C2.38828 4.94565 2.25398 5.03368 2.14073 5.14533C2.02749 5.25699 1.93756 5.39003 1.87619 5.53674C1.81481 5.68345 1.7832 5.84089 1.7832 5.99992C1.7832 6.15895 1.81481 6.3164 1.87619 6.46311C1.93756 6.60982 2.02749 6.74286 2.14073 6.85452C2.25398 6.96617 2.38828 7.0542 2.53584 7.1135C2.6834 7.1728 2.84128 7.20217 3.00029 7.19992H27.0003C27.1593 7.20217 27.3172 7.1728 27.4647 7.1135C27.6123 7.0542 27.7466 6.96617 27.8599 6.85452C27.9731 6.74286 28.063 6.60982 28.1244 6.46311C28.1858 6.3164 28.2174 6.15895 28.2174 5.99992C28.2174 5.84089 28.1858 5.68345 28.1244 5.53674C28.063 5.39003 27.9731 5.25699 27.8599 5.14533C27.7466 5.03368 27.6123 4.94565 27.4647 4.88635C27.3172 4.82705 27.1593 4.79768 27.0003 4.79992H3.00029ZM3.00029 13.7999C2.84128 13.7977 2.6834 13.8271 2.53584 13.8863C2.38828 13.9456 2.25398 14.0337 2.14073 14.1453C2.02749 14.257 1.93756 14.39 1.87619 14.5367C1.81481 14.6834 1.7832 14.8409 1.7832 14.9999C1.7832 15.159 1.81481 15.3164 1.87619 15.4631C1.93756 15.6098 2.02749 15.7429 2.14073 15.8545C2.25398 15.9662 2.38828 16.0542 2.53584 16.1135C2.6834 16.1728 2.84128 16.2022 3.00029 16.1999H27.0003C27.1593 16.2022 27.3172 16.1728 27.4647 16.1135C27.6123 16.0542 27.7466 15.9662 27.8599 15.8545C27.9731 15.7429 28.063 15.6098 28.1244 15.4631C28.1858 15.3164 28.2174 15.159 28.2174 14.9999C28.2174 14.8409 28.1858 14.6834 28.1244 14.5367C28.063 14.39 27.9731 14.257 27.8599 14.1453C27.7466 14.0337 27.6123 13.9456 27.4647 13.8863C27.3172 13.8271 27.1593 13.7977 27.0003 13.7999H3.00029ZM3.00029 22.7999C2.84128 22.7977 2.6834 22.8271 2.53584 22.8863C2.38828 22.9456 2.25398 23.0337 2.14073 23.1453C2.02749 23.257 1.93756 23.39 1.87619 23.5367C1.81481 23.6834 1.7832 23.8409 1.7832 23.9999C1.7832 24.159 1.81481 24.3164 1.87619 24.4631C1.93756 24.6098 2.02749 24.7429 2.14073 24.8545C2.25398 24.9662 2.38828 25.0542 2.53584 25.1135C2.6834 25.1728 2.84128 25.2022 3.00029 25.1999H27.0003C27.1593 25.2022 27.3172 25.1728 27.4647 25.1135C27.6123 25.0542 27.7466 24.9662 27.8599 24.8545C27.9731 24.7429 28.063 24.6098 28.1244 24.4631C28.1858 24.3164 28.2174 24.159 28.2174 23.9999C28.2174 23.8409 28.1858 23.6834 28.1244 23.5367C28.063 23.39 27.9731 23.257 27.8599 23.1453C27.7466 23.0337 27.6123 22.9456 27.4647 22.8863C27.3172 22.8271 27.1593 22.7977 27.0003 22.7999H3.00029Z" />
</svg>
