<svg viewBox="0 0 48 48" xmlns="http://www.w3.org/2000/svg">
<path d="M36.1444 41.179C35.9473 41.1794 35.752 41.1407 35.5699 41.0652C35.3878 40.9897 35.2225 40.8788 35.0834 40.739L24.0004 29.656L12.9174 40.739C12.6362 41.0202 12.2547 41.1782 11.8569 41.1782C11.4592 41.1782 11.0777 41.0202 10.7964 40.739L7.26145 37.2C6.98024 36.9187 6.82227 36.5373 6.82227 36.1395C6.82227 35.7418 6.98024 35.3603 7.26145 35.079L18.3444 24L7.26145 12.917C6.98024 12.6357 6.82227 12.2543 6.82227 11.8565C6.82227 11.4588 6.98024 11.0773 7.26145 10.796L10.8004 7.26102C11.0817 6.97981 11.4632 6.82184 11.8609 6.82184C12.2587 6.82184 12.6402 6.97981 12.9214 7.26102L24.0004 18.344L35.0834 7.26102C35.3647 6.97981 35.7462 6.82184 36.1439 6.82184C36.5417 6.82184 36.9232 6.97981 37.2044 7.26102L40.7394 10.8C41.0207 11.0813 41.1786 11.4628 41.1786 11.8605C41.1786 12.2583 41.0207 12.6397 40.7394 12.921L29.6564 24L40.7394 35.083C41.0207 35.3643 41.1786 35.7458 41.1786 36.1435C41.1786 36.5413 41.0207 36.9227 40.7394 37.204L37.2004 40.739C37.0621 40.8783 36.8975 40.9888 36.7163 41.0643C36.5351 41.1398 36.3408 41.1788 36.1444 41.179Z" />
</svg>
