<svg viewBox="0 0 50 50" xmlns="http://www.w3.org/2000/svg">
<path d="M40.2381 5H9.7619C7.13333 5 5 7.13333 5 9.7619V40.2381C5 42.8667 7.13333 45 9.7619 45H40.2381C42.8667 45 45 42.8667 45 40.2381V9.7619C45 7.13333 42.8667 5 40.2381 5ZM36.4286 19.2857H34.5238C32.4857 19.2857 31.6667 19.7619 31.6667 21.1905V24.0476H36.4286L35.4762 28.8095H31.6667V43.0952H26.9048V28.8095H23.0952V24.0476H26.9048V21.1905C26.9048 17.381 28.8095 14.5238 32.619 14.5238C35.381 14.5238 36.4286 15.4762 36.4286 15.4762V19.2857Z" />
</svg>
