<svg viewBox="0 0 206 35" xmlns="http://www.w3.org/2000/svg">
<path fill-rule="evenodd" clip-rule="evenodd" d="M24.3671 4.36277C24.3681 3.0199 24.9423 1.94343 26.3207 0.700548C27.2004 -0.0927401 27.3349 -0.146398 27.5444 0.212426C27.6739 0.433913 28.1621 1.04779 28.6292 1.57633C29.8268 2.93149 30.0163 3.38865 30.0163 4.92393C30.0163 5.94367 29.8701 6.52824 29.4245 7.29174L28.8329 8.30557L27.3645 7.62693C26.557 7.25368 25.552 6.61759 25.1313 6.21362C24.479 5.58721 24.3664 5.31419 24.3671 4.36277ZM24.837 12.181C29.364 8.17485 34.1155 5.2083 36.9907 4.59253C38.8595 4.19234 40.9451 5.18631 40.7975 6.4065C40.6826 7.35698 39.7548 7.79452 37.0239 8.18596C32.8998 8.77715 29.5707 10.4363 26.4619 13.4499C24.9392 14.9258 24.9001 14.9937 25.0091 15.964C25.3839 19.3041 22.3724 22.0723 18.7252 21.7402C17.1354 21.5955 15.7123 20.919 14.8613 19.9035C13.6298 18.4342 14.1778 17.3887 17.2155 15.413C20.0017 13.6007 21.4684 13.0027 22.6662 13.1899C23.4631 13.3144 23.6592 13.2232 24.837 12.181ZM0.896252 17.7113C2.89828 13.6444 6.96967 10.5925 12.5951 8.94119C13.6957 8.6183 14.8081 8.35568 15.067 8.35805C15.326 8.36041 14.7963 8.57292 13.8899 8.83057C7.42168 10.6684 3.08615 15.4404 3.47436 20.2952C3.83974 24.866 7.75669 28.5167 14.243 30.3321C16.0118 30.8271 16.7225 30.8904 20.364 30.8774C24.0853 30.8642 24.7104 30.8008 26.8245 30.2217C32.1883 28.7528 36.5422 25.5315 37.7243 22.1569C38.2782 20.576 38.2773 16.8561 37.7229 15.5886C37.5075 15.0963 37.4265 14.7526 37.543 14.8249C38.0732 15.1539 38.7884 17.7704 38.9014 19.7931C39.1636 24.4935 37.2977 27.8539 32.7312 30.9046C28.3432 33.8362 22.7095 35.2627 16.715 34.9601C9.14639 34.5782 3.09392 31.3149 0.753585 26.3548C0.0470836 24.8571 0 24.5937 0 22.1444C0 19.5946 0.0216587 19.4877 0.896252 17.7113ZM169.454 28.534H174.699V7.80123L171.471 2.35422H169.454V28.534ZM76.4822 6.28041C76.4822 6.67355 76.4046 7.046 76.2494 7.39775C76.1046 7.7495 75.9028 8.0547 75.6442 8.31334C75.3855 8.57199 75.0803 8.7789 74.7286 8.93409C74.3768 9.07893 74.0044 9.15135 73.6113 9.15135C73.2181 9.15135 72.8457 9.07893 72.4939 8.93409C72.1525 8.7789 71.8525 8.57199 71.5938 8.31334C71.3352 8.0547 71.1283 7.7495 70.9731 7.39775C70.8283 7.046 70.7558 6.67355 70.7558 6.28041C70.7558 5.88728 70.8283 5.52001 70.9731 5.1786C71.1283 4.82684 71.3352 4.52165 71.5938 4.263C71.8525 4.00436 72.1525 3.80262 72.4939 3.65778C72.8457 3.50259 73.2181 3.425 73.6113 3.425C74.0044 3.425 74.3768 3.50259 74.7286 3.65778C75.0803 3.80262 75.3855 4.00436 75.6442 4.263C75.9028 4.52165 76.1046 4.82684 76.2494 5.1786C76.4046 5.52001 76.4822 5.88728 76.4822 6.28041ZM76.2494 28.534H70.9886V10.6256H76.2494V28.534ZM58.4496 28.534H52.2888V6.1873H68.335V9.04272H58.4496V15.9485H66.0848V18.7884H58.4496V28.534ZM82.1465 28.534H87.4072V12.6896H92.8387V10.6101H87.4072V4.01471H82.1465V10.6101H78.8876V12.6896H82.1465V28.534ZM123.007 18.0745C123.007 19.3056 122.862 20.5885 122.572 21.9231C122.283 23.2577 121.874 24.5613 121.346 25.8338C120.829 27.096 120.203 28.2909 119.469 29.4186C118.734 30.5463 117.917 31.5239 117.017 32.3516L115.046 31.2808C115.346 30.7428 115.62 30.1376 115.868 29.4651C116.117 28.7927 116.344 28.084 116.551 27.3391C116.758 26.5942 116.939 25.8286 117.094 25.0423C117.249 24.2561 117.379 23.475 117.482 22.699C117.596 21.9128 117.679 21.1524 117.73 20.4178C117.782 19.6833 117.808 18.9953 117.808 18.3538C117.808 17.9917 117.798 17.5986 117.777 17.1744C117.756 16.7503 117.71 16.3261 117.637 15.9019C117.575 15.4777 117.477 15.0743 117.343 14.6915C117.208 14.2983 117.022 13.9517 116.784 13.6517C116.556 13.3414 116.267 13.0982 115.915 12.9224C115.573 12.7361 115.16 12.643 114.673 12.643C114.197 12.643 113.789 12.7723 113.447 13.031C113.116 13.2793 112.832 13.6052 112.594 14.0087C112.356 14.4121 112.165 14.8673 112.02 15.3743C111.885 15.8812 111.782 16.3933 111.709 16.9106C111.637 17.4176 111.585 17.9038 111.554 18.3694C111.533 18.8349 111.523 19.2281 111.523 19.5488V28.534H106.293V20.185C106.293 19.8229 106.298 19.3884 106.309 18.8815C106.319 18.3642 106.304 17.8262 106.262 17.2675C106.231 16.7089 106.164 16.1554 106.061 15.6071C105.967 15.0484 105.812 14.5518 105.595 14.1173C105.388 13.6828 105.104 13.331 104.741 13.062C104.379 12.7827 103.924 12.643 103.376 12.643C102.91 12.643 102.517 12.7723 102.196 13.031C101.886 13.2896 101.622 13.6259 101.405 14.0397C101.198 14.4432 101.033 14.9036 100.908 15.4208C100.795 15.9278 100.707 16.4399 100.645 16.9572C100.593 17.4641 100.562 17.9504 100.551 18.4159C100.541 18.8711 100.536 19.2487 100.536 19.5488V28.534H95.2752V10.6101H97.2926L99.2169 14.7846C99.6514 13.3362 100.334 12.2085 101.265 11.4015C102.207 10.5842 103.453 10.1756 105.005 10.1756C106.402 10.1756 107.561 10.4653 108.481 11.0446C109.402 11.624 110.126 12.5654 110.654 13.869C110.954 13.3 111.285 12.7879 111.647 12.3326C112.02 11.8774 112.428 11.4895 112.873 11.1688C113.328 10.848 113.83 10.6049 114.378 10.4394C114.927 10.2635 115.532 10.1756 116.194 10.1756C117.415 10.1756 118.455 10.3773 119.313 10.7808C120.182 11.1739 120.891 11.7223 121.439 12.4258C121.988 13.1293 122.386 13.9673 122.634 14.9398C122.883 15.9019 123.007 16.9468 123.007 18.0745ZM132.737 20.3713C132.095 20.2885 131.454 20.1747 130.813 20.0298C130.802 19.9471 130.797 19.8643 130.797 19.7816V19.5333C130.797 19.0574 130.833 18.5504 130.906 18.0124C130.978 17.4745 131.097 16.9417 131.263 16.414C131.428 15.8864 131.635 15.3795 131.883 14.8932C132.142 14.407 132.447 13.9828 132.799 13.6207C133.161 13.2482 133.575 12.9534 134.04 12.7361C134.516 12.5189 135.049 12.4102 135.639 12.4102C136.27 12.4102 136.823 12.5137 137.299 12.7206C137.775 12.9172 138.174 13.1965 138.494 13.5586C138.825 13.9207 139.074 14.3552 139.239 14.8622C139.405 15.3691 139.488 15.9278 139.488 16.5382C139.488 17.2934 139.363 17.9245 139.115 18.4314C138.867 18.9384 138.525 19.347 138.091 19.6574C137.667 19.9574 137.16 20.1747 136.57 20.3092C135.991 20.4333 135.36 20.4954 134.677 20.4954C134.025 20.4954 133.378 20.454 132.737 20.3713ZM143.383 18.4625C143.621 17.8831 143.74 17.2262 143.74 16.4916C143.74 15.695 143.61 14.9863 143.352 14.3656C143.103 13.7448 142.762 13.2017 142.327 12.7361C141.903 12.2602 141.401 11.8619 140.822 11.5412C140.243 11.2205 139.627 10.9618 138.975 10.7653C138.324 10.5584 137.651 10.4083 136.958 10.3152C136.265 10.2221 135.587 10.1756 134.925 10.1756C133.559 10.1756 132.297 10.4083 131.139 10.8739C129.98 11.3291 128.981 11.9705 128.143 12.7982C127.305 13.6259 126.648 14.6139 126.173 15.7622C125.697 16.9106 125.459 18.1676 125.459 19.5333C125.459 20.8989 125.697 22.1559 126.173 23.3043C126.648 24.4526 127.305 25.4406 128.143 26.2683C128.981 27.096 129.98 27.7426 131.139 28.2081C132.297 28.6633 133.559 28.8909 134.925 28.8909C135.753 28.8909 136.586 28.7978 137.424 28.6116C138.272 28.4254 139.068 28.1409 139.813 27.7581C140.569 27.365 141.241 26.8735 141.831 26.2838C142.431 25.6838 142.902 24.9751 143.243 24.1578L140.977 23.3198C140.781 23.8267 140.522 24.2871 140.201 24.7009C139.891 25.1148 139.529 25.4717 139.115 25.7717C138.701 26.0717 138.246 26.3045 137.749 26.47C137.253 26.6356 136.73 26.7183 136.182 26.7183C135.354 26.7183 134.635 26.5838 134.025 26.3149C133.425 26.0459 132.918 25.6838 132.504 25.2286C132.09 24.763 131.759 24.225 131.511 23.6146C131.263 22.9939 131.082 22.3421 130.968 21.6593C131.702 21.8972 132.447 22.0731 133.202 22.1869C133.958 22.2904 134.723 22.3421 135.499 22.3421C136.11 22.3421 136.736 22.3007 137.377 22.218C138.029 22.1352 138.66 22.0007 139.27 21.8145C139.881 21.6179 140.455 21.3696 140.993 21.0696C141.531 20.7696 142.002 20.4023 142.405 19.9678C142.819 19.5333 143.145 19.0315 143.383 18.4625ZM165.062 28.534H159.817V26.3925C159.196 27.2408 158.446 27.8719 157.567 28.2857C156.698 28.6892 155.741 28.8909 154.696 28.8909C153.33 28.8909 152.109 28.6478 151.033 28.1616C149.957 27.6753 149.047 27.0132 148.302 26.1752C147.557 25.3268 146.988 24.3337 146.595 23.1956C146.202 22.0576 146.005 20.8368 146.005 19.5333C146.005 18.2297 146.202 17.0089 146.595 15.8709C146.988 14.7329 147.557 13.7448 148.302 12.9068C149.047 12.0585 149.957 11.3912 151.033 10.9049C152.109 10.4187 153.33 10.1756 154.696 10.1756C155.389 10.1756 156.046 10.279 156.667 10.4859C157.298 10.6929 157.872 10.9877 158.389 11.3705C158.917 11.7429 159.377 12.1982 159.77 12.7361C160.174 13.2638 160.489 13.8535 160.717 14.5052L163.045 10.6101H165.062V28.534ZM159.786 19.5333C159.786 19.0677 159.76 18.5763 159.708 18.059C159.667 17.5417 159.589 17.0296 159.475 16.5227C159.362 16.0157 159.201 15.5346 158.994 15.0794C158.798 14.6139 158.539 14.2052 158.218 13.8535C157.908 13.4914 157.53 13.2069 157.086 12.9999C156.641 12.793 156.123 12.6896 155.534 12.6896C154.944 12.6896 154.432 12.7982 153.997 13.0155C153.563 13.2224 153.19 13.5069 152.88 13.869C152.57 14.2207 152.311 14.6294 152.104 15.0949C151.908 15.5605 151.752 16.0468 151.639 16.5537C151.525 17.0606 151.442 17.5727 151.39 18.09C151.349 18.597 151.328 19.078 151.328 19.5333C151.328 19.9885 151.349 20.4747 151.39 20.992C151.442 21.5093 151.525 22.0214 151.639 22.5283C151.752 23.0353 151.908 23.5215 152.104 23.9871C152.311 24.4526 152.57 24.8665 152.88 25.2286C153.19 25.5803 153.563 25.8648 153.997 26.0821C154.432 26.289 154.944 26.3925 155.534 26.3925C156.072 26.3925 156.548 26.2838 156.961 26.0666C157.386 25.839 157.753 25.5389 158.063 25.1665C158.384 24.794 158.653 24.3699 158.87 23.894C159.087 23.4181 159.263 22.9266 159.398 22.4197C159.532 21.9128 159.631 21.411 159.693 20.9144C159.755 20.4075 159.786 19.9471 159.786 19.5333ZM184.584 6.28041C184.584 6.67355 184.507 7.046 184.352 7.39775C184.207 7.7495 184.005 8.0547 183.746 8.31334C183.488 8.57199 183.183 8.7789 182.831 8.93409C182.479 9.07893 182.107 9.15135 181.713 9.15135C181.32 9.15135 180.948 9.07893 180.596 8.93409C180.255 8.7789 179.955 8.57199 179.696 8.31334C179.437 8.0547 179.23 7.7495 179.075 7.39775C178.93 7.046 178.858 6.67355 178.858 6.28041C178.858 5.88728 178.93 5.52001 179.075 5.1786C179.23 4.82684 179.437 4.52165 179.696 4.263C179.955 4.00436 180.255 3.80262 180.596 3.65778C180.948 3.50259 181.32 3.425 181.713 3.425C182.107 3.425 182.479 3.50259 182.831 3.65778C183.183 3.80262 183.488 4.00436 183.746 4.263C184.005 4.52165 184.207 4.82684 184.352 5.1786C184.507 5.52001 184.584 5.88728 184.584 6.28041ZM184.352 28.534H179.091V10.6256H184.352V28.534ZM194.997 20.3713C194.356 20.2885 193.714 20.1747 193.073 20.0298C193.063 19.9471 193.058 19.8643 193.058 19.7816V19.5333C193.058 19.0574 193.094 18.5504 193.166 18.0124C193.239 17.4745 193.358 16.9417 193.523 16.414C193.689 15.8864 193.896 15.3795 194.144 14.8932C194.402 14.407 194.708 13.9828 195.059 13.6207C195.422 13.2482 195.835 12.9534 196.301 12.7361C196.777 12.5189 197.31 12.4102 197.899 12.4102C198.53 12.4102 199.084 12.5137 199.56 12.7206C200.036 12.9172 200.434 13.1965 200.755 13.5586C201.086 13.9207 201.334 14.3552 201.5 14.8622C201.665 15.3691 201.748 15.9278 201.748 16.5382C201.748 17.2934 201.624 17.9245 201.375 18.4314C201.127 18.9384 200.786 19.347 200.351 19.6574C199.927 19.9574 199.42 20.1747 198.83 20.3092C198.251 20.4333 197.62 20.4954 196.937 20.4954C196.285 20.4954 195.639 20.454 194.997 20.3713ZM205.643 18.4625C205.881 17.8831 206 17.2262 206 16.4916C206 15.695 205.871 14.9863 205.612 14.3656C205.364 13.7448 205.022 13.2017 204.588 12.7361C204.164 12.2602 203.662 11.8619 203.083 11.5412C202.503 11.2205 201.888 10.9618 201.236 10.7653C200.584 10.5584 199.912 10.4083 199.218 10.3152C198.525 10.2221 197.848 10.1756 197.185 10.1756C195.82 10.1756 194.558 10.4083 193.399 10.8739C192.24 11.3291 191.242 11.9705 190.404 12.7982C189.566 13.6259 188.909 14.6139 188.433 15.7622C187.957 16.9106 187.719 18.1676 187.719 19.5333C187.719 20.8989 187.957 22.1559 188.433 23.3043C188.909 24.4526 189.566 25.4406 190.404 26.2683C191.242 27.096 192.24 27.7426 193.399 28.2081C194.558 28.6633 195.82 28.8909 197.185 28.8909C198.013 28.8909 198.846 28.7978 199.684 28.6116C200.532 28.4254 201.329 28.1409 202.074 27.7581C202.829 27.365 203.502 26.8735 204.091 26.2838C204.691 25.6838 205.162 24.9751 205.503 24.1578L203.238 23.3198C203.041 23.8267 202.782 24.2871 202.462 24.7009C202.151 25.1148 201.789 25.4717 201.375 25.7717C200.962 26.0717 200.506 26.3045 200.01 26.47C199.513 26.6356 198.991 26.7183 198.442 26.7183C197.615 26.7183 196.896 26.5838 196.285 26.3149C195.685 26.0459 195.178 25.6838 194.765 25.2286C194.351 24.763 194.02 24.225 193.771 23.6146C193.523 22.9939 193.342 22.3421 193.228 21.6593C193.963 21.8972 194.708 22.0731 195.463 22.1869C196.218 22.2904 196.984 22.3421 197.76 22.3421C198.37 22.3421 198.996 22.3007 199.637 22.218C200.289 22.1352 200.92 22.0007 201.531 21.8145C202.141 21.6179 202.715 21.3696 203.253 21.0696C203.791 20.7696 204.262 20.4023 204.665 19.9678C205.079 19.5333 205.405 19.0315 205.643 18.4625Z" />
</svg>
